<?xml version="1.0" encoding="utf-8"?>
<!-- Generator: Adobe Illustrator 26.3.1, SVG Export Plug-In . SVG Version: 6.00 Build 0)  -->
<svg version="1.1" id="Layer_1" xmlns="http://www.w3.org/2000/svg" xmlns:xlink="http://www.w3.org/1999/xlink" x="0px" y="0px"
	 viewBox="0 0 141.7 141.7" style="enable-background:new 0 0 141.7 141.7;" xml:space="preserve">
<style type="text/css">
	.st0{fill:none;stroke:#0072BC;stroke-miterlimit:10;}
	.st1{fill:#0072BC;}
</style>
<g>
	<g>
		<path class="st0" d="M46.7,96.5c-0.8,0.7-1.2,1.5-1.2,2.4v3.7v3.5c0,0.9,0.5,1.8,1.2,2.4s4.9-0.4,4.9-0.4V97.6v10.6
			c0,0,4.1,0.9,4.9,0.4s1.2-1.5,1.2-2.4v-3.7v-3.7c0-0.9-0.5-1.8-1.2-2.4c0,0,2-1.4,2.3-2c0.9-2,0-8.9,0-8.9c0-1.4-2.2-2.7-3.2-3.4
			c0.7-0.9,2.4-0.9,2.4-4.3c0-3.4-2.8-6.4-6.4-6.4s-6.4,3-6.4,6.4c0,3.4,1.8,3.2,2.4,4.3c-1.1,0.7-3.2,1.9-3.2,3.4
			c0,0-0.9,6.9,0,8.9C44.6,95.1,46.7,96.5,46.7,96.5z"/>
		<path class="st0" d="M62.1,94.6c-0.5,0.4-0.8,1.1-0.8,1.6v2.6v2.6c0,0.7,0.3,1.2,0.8,1.6c0.5,0.4,3.4-0.3,3.4-0.3v-7.4v7.4
			c0,0,2.8,0.7,3.4,0.3c0.5-0.4,0.8-1.1,0.8-1.6v-2.6v-2.6c0-0.7-0.3-1.2-0.8-1.6c0,0,1.4-0.9,1.6-1.5c0.7-1.5,0-6.4,0-6.4
			c0-0.9-1.5-1.9-2.3-2.3c0.4-0.7,1.6-0.7,1.6-3s-2-4.5-4.5-4.5s-4.5,2-4.5,4.5s1.2,2.3,1.6,3c-0.8,0.5-2.3,1.4-2.3,2.3
			c0,0-0.7,4.9,0,6.4C60.6,93.7,62.1,94.6,62.1,94.6z"/>
		<path class="st0" d="M34.1,94.6c-0.5,0.4-0.8,1.1-0.8,1.6v2.6v2.6c0,0.7,0.3,1.2,0.8,1.6c0.5,0.4,3.4-0.3,3.4-0.3v-7.4v7.4
			c0,0,2.8,0.7,3.4,0.3s0.8-1.1,0.8-1.6v-2.6v-2.6c0-0.7-0.3-1.2-0.8-1.6c0,0,1.4-0.9,1.6-1.5c0.7-1.5,0-6.4,0-6.4
			c0-0.9-1.5-1.9-2.3-2.3c0.4-0.7,1.6-0.7,1.6-3s-2-4.5-4.5-4.5c-2.4,0-4.2,2-4.2,4.5c0,2.4,1.2,2.3,1.6,3c-0.8,0.5-2.3,1.4-2.3,2.3
			c0,0-0.7,4.9,0,6.4C32.7,93.7,34.1,94.6,34.1,94.6z"/>
	</g>
	<polygon class="st1" points="52,14.9 14,52.6 89.7,52.6 89.7,127.6 89.7,127.6 127.7,90.1 127.7,14.9 	"/>
</g>
</svg>
