<?xml version="1.0" encoding="utf-8"?>
<!-- Generator: Adobe Illustrator 26.2.1, SVG Export Plug-In . SVG Version: 6.00 Build 0)  -->
<svg version="1.1" id="Layer_1" xmlns="http://www.w3.org/2000/svg" xmlns:xlink="http://www.w3.org/1999/xlink" x="0px" y="0px"
	 viewBox="0 0 595.28 841.89" style="enable-background:new 0 0 595.28 841.89;" xml:space="preserve">
<style type="text/css">
	.st0{fill:none;stroke:#0072BC;stroke-miterlimit:10;}
	.st1{fill:#0072BC;}
</style>
<g>
	<g>
		<path class="st0" d="M279.75,439.94c-0.56,0.45-0.91,1.08-0.91,1.77v2.7v2.7c0,0.69,0.35,1.32,0.91,1.77s3.6-0.26,3.6-0.26v-7.76
			v7.76c0,0,3.04,0.72,3.6,0.26s0.91-1.08,0.91-1.77v-2.7v-2.7c0-0.69-0.35-1.32-0.91-1.77c0,0,1.47-1,1.7-1.52
			c0.68-1.52,0-6.64,0-6.64c0-1.04-1.56-1.95-2.39-2.46c0.47-0.73,1.75-0.73,1.75-3.17s-2.13-4.66-4.66-4.66
			c-2.53,0-4.66,2.2-4.66,4.66s1.28,2.44,1.75,3.17c-0.83,0.51-2.39,1.42-2.39,2.46c0,0-0.68,5.13,0,6.64
			C278.28,438.94,279.75,439.94,279.75,439.94z"/>
		<path class="st0" d="M291.14,438.55c-0.4,0.32-0.64,0.76-0.64,1.25v1.9v1.9c0,0.49,0.25,0.93,0.64,1.25
			c0.4,0.32,2.54-0.19,2.54-0.19v-5.46v5.46c0,0,2.14,0.51,2.54,0.19c0.4-0.32,0.64-0.76,0.64-1.25v-1.9v-1.9
			c0-0.49-0.25-0.93-0.64-1.25c0,0,1.04-0.7,1.2-1.07c0.48-1.07,0-4.68,0-4.68c0-0.73-1.1-1.37-1.68-1.73
			c0.33-0.51,1.23-0.51,1.23-2.23s-1.5-3.28-3.28-3.28s-3.28,1.55-3.28,3.28c0,1.73,0.9,1.72,1.23,2.23c-0.58,0.36-1.68,1-1.68,1.73
			c0,0-0.48,3.61,0,4.68C290.1,437.85,291.14,438.55,291.14,438.55z"/>
		<path class="st0" d="M270.49,438.55c-0.4,0.32-0.64,0.76-0.64,1.25v1.9v1.9c0,0.49,0.25,0.93,0.64,1.25
			c0.4,0.32,2.54-0.19,2.54-0.19v-5.46v5.46c0,0,2.14,0.51,2.54,0.19c0.4-0.32,0.64-0.76,0.64-1.25v-1.9v-1.9
			c0-0.49-0.25-0.93-0.64-1.25c0,0,1.04-0.7,1.2-1.07c0.48-1.07,0-4.68,0-4.68c0-0.73-1.1-1.37-1.68-1.73
			c0.33-0.51,1.23-0.51,1.23-2.23s-1.5-3.28-3.28-3.28s-3.28,1.55-3.28,3.28c0,1.73,0.9,1.72,1.23,2.23c-0.58,0.36-1.68,1-1.68,1.73
			c0,0-0.48,3.61,0,4.68C269.46,437.85,270.49,438.55,270.49,438.55z"/>
	</g>
	<polygon class="st1" points="283.63,379.68 255.65,407.61 311.61,407.61 311.61,463.02 311.61,463.02 339.6,435.32 339.6,379.68 	
		"/>
</g>
</svg>
