<?xml version="1.0" encoding="UTF-8" standalone="no"?>
<svg
   xmlns:dc="http://purl.org/dc/elements/1.1/"
   xmlns:cc="http://creativecommons.org/ns#"
   xmlns:rdf="http://www.w3.org/1999/02/22-rdf-syntax-ns#"
   xmlns:svg="http://www.w3.org/2000/svg"
   xmlns="http://www.w3.org/2000/svg"
   height="64"
   width="64"
   id="Layer_4"
   data-name="Layer 4"
   viewBox="0 0 64 64"
   version="1.1">
  <metadata
     id="metadata23">
    <rdf:RDF>
      <cc:Work
         rdf:about="">
        <dc:format>image/svg+xml</dc:format>
        <dc:type
           rdf:resource="http://purl.org/dc/dcmitype/StillImage" />
        <dc:title></dc:title>
      </cc:Work>
    </rdf:RDF>
  </metadata>
  <defs
     id="defs4">
    <style
       id="style2">.cls-1{fill:#fff;}.cls-2{fill:#828282;}.cls-3{fill:#2c67b1;}</style>
  </defs>
  <g
     style="fill:#2c67b1;fill-opacity:1"
     transform="matrix(1.6987543,0,0,1.6987543,-10.458097,-32.249947)"
     id="g891">
    <path
       style="fill:#2c67b1;fill-opacity:1"
       class="st0"
       d="m 24.043665,39.536801 c 0,-1.16 0.3,-2.36 -1.29,-2.36 -1.49,0 -1.32,1.27 -1.32,2.36 z m -2.61,0.44 v 1.39 c 0,1.22 0.07,2.36 1.59,2.36 1.29,0 2.27,-0.9 2.63,-2.08 h 0.45 c -0.47,1.68 -1.7,2.43 -3.44,2.43 -1.95,0 -3.36,-1.82 -3.36,-3.6 0,-1.91 1.61,-3.65 3.56,-3.65 1.66,0 3.2,1.11 3.2,2.83 0,0.37 -0.16,0.31 -0.45,0.31 h -4.18 z"
       id="path4" />
    <path
       style="fill:#2c67b1;fill-opacity:1"
       class="st0"
       d="m 36.073665,37.256801 c -0.95,0 -1.88,1.25 -1.88,1.87 v 2.11 c 0,1.05 0.75,2.14 1.85,2.14 0.8,0 1.25,-0.41 1.25,-1.23 v -3.47 c 0,-0.88 -0.24,-1.42 -1.22,-1.42"
       id="path6" />
    <path
       style="fill:#2c67b1;fill-opacity:1"
       class="st0"
       d="m 36.203665,43.696801 c -0.87,0 -1.61,-0.34 -1.97,-1.15 h -0.03 v 4.3 h 1.12 v 0.4 h -4.01 v -0.4 h 1.15 v -9.4 h -1.17 v -0.41 c 0.95,0.03 1.93,-0.03 2.91,-0.06 v 1.31 h 0.03 c 0.34,-0.74 1.14,-1.34 1.97,-1.34 1.75,0 3,1.65 3,3.36 0,1.62 -1.27,3.39 -3,3.39 m 1.29,-11.82 h -3.89 v -0.4 h 1.11 v -5.61 h -1.11 v -0.4 c 0.9,0.03 1.83,-0.03 2.76,-0.07 v 6.08 h 1.13 z m -2.07,-10.35 c 0.44,0 0.9,0.39 0.9,0.88 0,0.55 -0.38,0.97 -0.9,0.97 -0.47,0 -0.82,-0.5 -0.82,-0.97 -0.01,-0.44 0.4,-0.88 0.82,-0.88 m -9.95,10.35 h -3.89 v -0.4 h 1.11 v -5.61 h -1.11 v -0.4 c 0.9,0.03 1.83,-0.03 2.76,-0.07 v 6.08 h 1.13 z m -2.07,-10.35 c 0.44,0 0.9,0.39 0.9,0.88 0,0.55 -0.38,0.97 -0.9,0.97 -0.47,0 -0.82,-0.5 -0.82,-0.97 0,-0.44 0.41,-0.88 0.82,-0.88 m -1.93,-1.2 -14.1399998,13.9 H 28.803665 v -8.93 h 0.8 v 8.93 h 0.01 v 0.02 h 9.56 v 0.77 h -9.55 v 20.3 l 13.03,-12.16 v -22.82 h -21.18 z"
       id="path8" />
  </g>
</svg>
