<?xml version="1.0" encoding="UTF-8" standalone="no"?>
<svg
   xmlns:dc="http://purl.org/dc/elements/1.1/"
   xmlns:cc="http://creativecommons.org/ns#"
   xmlns:rdf="http://www.w3.org/1999/02/22-rdf-syntax-ns#"
   xmlns:svg="http://www.w3.org/2000/svg"
   xmlns="http://www.w3.org/2000/svg"
   height="64"
   width="64"
   id="Layer_4"
   data-name="Layer 4"
   viewBox="0 0 64 64"
   version="1.1">
  <metadata
     id="metadata23">
    <rdf:RDF>
      <cc:Work
         rdf:about="">
        <dc:format>image/svg+xml</dc:format>
        <dc:type
           rdf:resource="http://purl.org/dc/dcmitype/StillImage" />
        <dc:title></dc:title>
      </cc:Work>
    </rdf:RDF>
  </metadata>
  <defs
     id="defs4">
    <style
       id="style2">.cls-1{fill:#fff;}.cls-2{fill:#828282;}.cls-3{fill:#2c67b1;}</style>
  </defs>
  <g
     style="fill:#2c67b1;fill-opacity:1"
     transform="translate(41.769997,-39.860579)"
     id="g987">
    <g
       style="fill:#2c67b1;fill-opacity:1"
       transform="matrix(0.71471114,0,0,0.71471114,-222.4859,-229.28296)"
       id="g14">
      <g
         style="fill:#2c67b1;fill-opacity:1"
         id="g10">
        <path
           style="fill:#2c67b1;fill-opacity:1"
           class="st0"
           d="m 279.75,439.94 c -0.56,0.45 -0.91,1.08 -0.91,1.77 v 2.7 2.7 c 0,0.69 0.35,1.32 0.91,1.77 0.56,0.45 3.6,-0.26 3.6,-0.26 v -7.76 7.76 c 0,0 3.04,0.72 3.6,0.26 0.56,-0.46 0.91,-1.08 0.91,-1.77 v -2.7 -2.7 c 0,-0.69 -0.35,-1.32 -0.91,-1.77 0,0 1.47,-1 1.7,-1.52 0.68,-1.52 0,-6.64 0,-6.64 0,-1.04 -1.56,-1.95 -2.39,-2.46 0.47,-0.73 1.75,-0.73 1.75,-3.17 0,-2.44 -2.13,-4.66 -4.66,-4.66 -2.53,0 -4.66,2.2 -4.66,4.66 0,2.46 1.28,2.44 1.75,3.17 -0.83,0.51 -2.39,1.42 -2.39,2.46 0,0 -0.68,5.13 0,6.64 0.23,0.52 1.7,1.52 1.7,1.52 z"
           id="path4-3" />
        <path
           style="fill:#2c67b1;fill-opacity:1"
           class="st0"
           d="m 291.14,438.55 c -0.4,0.32 -0.64,0.76 -0.64,1.25 v 1.9 1.9 c 0,0.49 0.25,0.93 0.64,1.25 0.4,0.32 2.54,-0.19 2.54,-0.19 v -5.46 5.46 c 0,0 2.14,0.51 2.54,0.19 0.4,-0.32 0.64,-0.76 0.64,-1.25 v -1.9 -1.9 c 0,-0.49 -0.25,-0.93 -0.64,-1.25 0,0 1.04,-0.7 1.2,-1.07 0.48,-1.07 0,-4.68 0,-4.68 0,-0.73 -1.1,-1.37 -1.68,-1.73 0.33,-0.51 1.23,-0.51 1.23,-2.23 0,-1.72 -1.5,-3.28 -3.28,-3.28 -1.78,0 -3.28,1.55 -3.28,3.28 0,1.73 0.9,1.72 1.23,2.23 -0.58,0.36 -1.68,1 -1.68,1.73 0,0 -0.48,3.61 0,4.68 0.14,0.37 1.18,1.07 1.18,1.07 z"
           id="path6-6" />
        <path
           style="fill:#2c67b1;fill-opacity:1"
           class="st0"
           d="m 270.49,438.55 c -0.4,0.32 -0.64,0.76 -0.64,1.25 v 1.9 1.9 c 0,0.49 0.25,0.93 0.64,1.25 0.4,0.32 2.54,-0.19 2.54,-0.19 v -5.46 5.46 c 0,0 2.14,0.51 2.54,0.19 0.4,-0.32 0.64,-0.76 0.64,-1.25 v -1.9 -1.9 c 0,-0.49 -0.25,-0.93 -0.64,-1.25 0,0 1.04,-0.7 1.2,-1.07 0.48,-1.07 0,-4.68 0,-4.68 0,-0.73 -1.1,-1.37 -1.68,-1.73 0.33,-0.51 1.23,-0.51 1.23,-2.23 0,-1.72 -1.5,-3.28 -3.28,-3.28 -1.78,0 -3.28,1.55 -3.28,3.28 0,1.73 0.9,1.72 1.23,2.23 -0.58,0.36 -1.68,1 -1.68,1.73 0,0 -0.48,3.61 0,4.68 0.15,0.37 1.18,1.07 1.18,1.07 z"
           id="path8-7" />
      </g>
      <polygon
         style="fill:#2c67b1;fill-opacity:1"
         class="st1"
         points="255.65,407.61 311.61,407.61 311.61,463.02 339.6,435.32 339.6,379.68 283.63,379.68 "
         id="polygon12" />
    </g>
  </g>
</svg>
